<svg width="482" height="89" viewBox="0 0 482 89" fill="none" xmlns="http://www.w3.org/2000/svg">
<path d="M0.96 34.456H18.368L32.768 72.152L47.168 34.456H64.512L42.304 87H23.232L0.96 34.456ZM104.492 87V77.848C104.108 78.7867 103.127 80.1093 101.548 81.816C99.9693 83.5227 97.836 85.08 95.148 86.488C92.5027 87.8533 89.388 88.536 85.804 88.536C80.7693 88.536 76.3107 87.3413 72.428 84.952C68.5453 82.52 65.4947 79.2133 63.276 75.032C61.1 70.808 60.012 66.0507 60.012 60.76C60.012 55.4693 61.1 50.7333 63.276 46.552C65.4947 42.328 68.5453 39 72.428 36.568C76.3107 34.136 80.7693 32.92 85.804 32.92C89.3027 32.92 92.332 33.5173 94.892 34.712C97.4947 35.864 99.5853 37.2293 101.164 38.808C102.785 40.344 103.831 41.7307 104.3 42.968V34.456H120.428V87H104.492ZM75.948 60.76C75.948 63.704 76.6093 66.3067 77.932 68.568C79.2547 70.7867 81.004 72.5147 83.18 73.752C85.356 74.9893 87.724 75.608 90.284 75.608C92.972 75.608 95.3613 74.9893 97.452 73.752C99.5427 72.472 101.185 70.7227 102.38 68.504C103.617 66.2427 104.236 63.6613 104.236 60.76C104.236 57.8587 103.617 55.2987 102.38 53.08C101.185 50.8187 99.5427 49.048 97.452 47.768C95.3613 46.488 92.972 45.848 90.284 45.848C87.724 45.848 85.356 46.488 83.18 47.768C81.004 49.0053 79.2547 50.7547 77.932 53.016C76.6093 55.2347 75.948 57.816 75.948 60.76ZM150.605 75.608C153.378 75.608 155.64 75.1387 157.389 74.2C159.138 73.2613 160.29 72.5573 160.845 72.088L168.397 83.288C167.8 83.7573 166.69 84.4187 165.069 85.272C163.448 86.1253 161.378 86.872 158.861 87.512C156.386 88.1947 153.549 88.536 150.349 88.536C144.802 88.536 139.832 87.4267 135.437 85.208C131.042 82.9467 127.565 79.7467 125.005 75.608C122.488 71.4267 121.229 66.456 121.229 60.696C121.229 54.8933 122.488 49.9227 125.005 45.784C127.565 41.6453 131.042 38.4667 135.437 36.248C139.832 34.0293 144.802 32.92 150.349 32.92C153.506 32.92 156.301 33.2613 158.733 33.944C161.208 34.6267 163.277 35.416 164.941 36.312C166.605 37.1653 167.757 37.8693 168.397 38.424L160.653 49.688C160.354 49.3467 159.778 48.8773 158.925 48.28C158.072 47.6827 156.941 47.128 155.533 46.616C154.168 46.104 152.525 45.848 150.605 45.848C148.258 45.848 146.018 46.4667 143.885 47.704C141.794 48.9413 140.088 50.6693 138.765 52.888C137.442 55.1067 136.781 57.7093 136.781 60.696C136.781 63.6827 137.442 66.3067 138.765 68.568C140.088 70.7867 141.794 72.5147 143.885 73.752C146.018 74.9893 148.258 75.608 150.605 75.608ZM208.637 87V77.848C208.253 78.7867 207.272 80.1093 205.693 81.816C204.114 83.5227 201.981 85.08 199.293 86.488C196.648 87.8533 193.533 88.536 189.949 88.536C184.914 88.536 180.456 87.3413 176.573 84.952C172.69 82.52 169.64 79.2133 167.421 75.032C165.245 70.808 164.157 66.0507 164.157 60.76C164.157 55.4693 165.245 50.7333 167.421 46.552C169.64 42.328 172.69 39 176.573 36.568C180.456 34.136 184.914 32.92 189.949 32.92C193.448 32.92 196.477 33.5173 199.037 34.712C201.64 35.864 203.73 37.2293 205.309 38.808C206.93 40.344 207.976 41.7307 208.445 42.968V34.456H224.573V87H208.637ZM180.093 60.76C180.093 63.704 180.754 66.3067 182.077 68.568C183.4 70.7867 185.149 72.5147 187.325 73.752C189.501 74.9893 191.869 75.608 194.429 75.608C197.117 75.608 199.506 74.9893 201.597 73.752C203.688 72.472 205.33 70.7227 206.525 68.504C207.762 66.2427 208.381 63.6613 208.381 60.76C208.381 57.8587 207.762 55.2987 206.525 53.08C205.33 50.8187 203.688 49.048 201.597 47.768C199.506 46.488 197.117 45.848 194.429 45.848C191.869 45.848 189.501 46.488 187.325 47.768C185.149 49.0053 183.4 50.7547 182.077 53.016C180.754 55.2347 180.093 57.816 180.093 60.76ZM261.214 32.92C264.798 32.92 268.297 33.6667 271.71 35.16C275.123 36.6107 277.918 38.936 280.094 42.136C282.313 45.336 283.422 49.5173 283.422 54.68V87H267.102V57.496C267.102 53.1867 266.078 49.9867 264.03 47.896C262.025 45.8053 259.379 44.76 256.094 44.76C253.961 44.76 251.913 45.3573 249.95 46.552C248.03 47.704 246.451 49.3253 245.214 51.416C244.019 53.464 243.422 55.8107 243.422 58.456V87H227.166V34.456H243.422V42.84C243.891 41.3893 244.958 39.896 246.622 38.36C248.286 36.824 250.398 35.544 252.958 34.52C255.518 33.4533 258.27 32.92 261.214 32.92ZM281.333 34.456H290.805V12.888H306.933V34.456H319.349V47.96H306.933V66.968C306.933 69.4853 307.338 71.448 308.149 72.856C308.96 74.2213 310.24 74.904 311.989 74.904C313.312 74.904 314.4 74.648 315.253 74.136C316.106 73.5813 316.618 73.1973 316.789 72.984L322.549 84.632C322.293 84.888 321.461 85.336 320.053 85.976C318.688 86.616 316.917 87.192 314.741 87.704C312.608 88.2587 310.197 88.536 307.509 88.536C302.688 88.536 298.698 87.1493 295.541 84.376C292.384 81.56 290.805 77.208 290.805 71.32V47.96H281.333V34.456ZM359.296 40.28H402.176V45.336C402.176 51.352 401.152 56.984 399.104 62.232C397.099 67.4373 394.219 72.024 390.464 75.992C386.709 79.9173 382.251 82.9893 377.088 85.208C371.968 87.4267 366.315 88.536 360.128 88.536C353.771 88.536 347.968 87.4053 342.72 85.144C337.472 82.8827 332.949 79.7467 329.152 75.736C325.355 71.7253 322.411 67.0747 320.32 61.784C318.272 56.4507 317.248 50.7547 317.248 44.696C317.248 38.68 318.272 33.0267 320.32 27.736C322.411 22.4027 325.355 17.752 329.152 13.784C332.949 9.77333 337.472 6.63733 342.72 4.376C347.968 2.11466 353.771 0.983994 360.128 0.983994C365.035 0.983994 369.408 1.51733 373.248 2.584C377.088 3.65067 380.437 5.10133 383.296 6.936C386.197 8.72799 388.693 10.7333 390.784 12.952C392.917 15.128 394.688 17.3253 396.096 19.544L381.12 26.84C379.072 23.8533 376.341 21.2933 372.928 19.16C369.557 17.0267 365.291 15.96 360.128 15.96C356.288 15.96 352.747 16.728 349.504 18.264C346.304 19.7573 343.531 21.8267 341.184 24.472C338.88 27.1173 337.088 30.1893 335.808 33.688C334.528 37.144 333.888 40.8133 333.888 44.696C333.888 48.6213 334.528 52.312 335.808 55.768C337.088 59.224 338.88 62.296 341.184 64.984C343.531 67.6293 346.304 69.6987 349.504 71.192C352.747 72.6853 356.288 73.432 360.128 73.432C363.627 73.432 366.805 72.92 369.664 71.896C372.523 70.872 374.997 69.4213 377.088 67.544C379.221 65.6667 380.907 63.4693 382.144 60.952C383.381 58.392 384.085 55.64 384.256 52.696H359.296V40.28ZM429.25 88.536C423.661 88.536 418.669 87.3413 414.274 84.952C409.922 82.5627 406.509 79.2987 404.034 75.16C401.559 70.9787 400.322 66.2213 400.322 60.888C400.322 55.5547 401.559 50.7973 404.034 46.616C406.509 42.392 409.922 39.064 414.274 36.632C418.669 34.1573 423.661 32.92 429.25 32.92C434.882 32.92 439.853 34.1573 444.162 36.632C448.471 39.064 451.842 42.392 454.274 46.616C456.706 50.7973 457.922 55.5547 457.922 60.888C457.922 66.2213 456.706 70.9787 454.274 75.16C451.842 79.2987 448.471 82.5627 444.162 84.952C439.853 87.3413 434.882 88.536 429.25 88.536ZM429.25 75.032C431.938 75.032 434.263 74.4347 436.226 73.24C438.231 72.0027 439.767 70.3173 440.834 68.184C441.943 66.008 442.498 63.5547 442.498 60.824C442.498 58.0933 441.943 55.64 440.834 53.464C439.767 51.288 438.231 49.5813 436.226 48.344C434.263 47.064 431.938 46.424 429.25 46.424C426.562 46.424 424.215 47.064 422.21 48.344C420.247 49.5813 418.711 51.288 417.602 53.464C416.493 55.64 415.938 58.0933 415.938 60.824C415.938 63.5547 416.493 66.008 417.602 68.184C418.711 70.3173 420.247 72.0027 422.21 73.24C424.215 74.4347 426.562 75.032 429.25 75.032ZM471.201 88.536C468.342 88.536 465.889 87.512 463.841 85.464C461.793 83.416 460.769 80.9627 460.769 78.104C460.769 75.16 461.793 72.664 463.841 70.616C465.889 68.568 468.342 67.544 471.201 67.544C474.145 67.544 476.62 68.568 478.625 70.616C480.673 72.664 481.697 75.16 481.697 78.104C481.697 80.9627 480.673 83.416 478.625 85.464C476.62 87.512 474.145 88.536 471.201 88.536Z" fill="#2F4F4F"/>
</svg>
